<?xml version="1.0" standalone="no"?>
<!DOCTYPE svg PUBLIC "-//W3C//DTD SVG 20010904//EN"
 "http://www.w3.org/TR/2001/REC-SVG-20010904/DTD/svg10.dtd">
<svg version="1.0" xmlns="http://www.w3.org/2000/svg"
 width="1152.000000pt" height="1152.000000pt" viewBox="0 0 1152.000000 1152.000000"
 preserveAspectRatio="xMidYMid meet">
<metadata>
Created by potrace 1.14, written by Peter Selinger 2001-2017
</metadata>
<g transform="translate(0.000000,1152.000000) scale(0.100000,-0.100000)"
fill="#000000" stroke="none">
<path d="M4836 10742 c-35 -69 -40 -109 -21 -165 13 -39 14 -51 3 -69 -9 -17
-14 -108 -16 -344 l-4 -321 -38 -12 c-56 -16 -80 -52 -80 -116 0 -64 20 -85
84 -92 25 -3 52 -13 59 -22 8 -9 20 -47 26 -85 23 -132 61 -174 207 -224 l79
-27 10 -49 c11 -49 34 -76 67 -76 15 0 18 8 18 49 0 54 0 54 75 65 46 7 127
-5 132 -19 1 -6 -10 -17 -26 -26 -61 -35 -66 -144 -8 -180 32 -20 64 -21 152
-3 l31 6 12 -94 c7 -51 23 -131 37 -177 29 -99 30 -109 10 -147 -20 -39 -19
-63 5 -102 11 -18 20 -40 20 -50 0 -16 -41 -244 -45 -250 -4 -6 -149 29 -215
52 -106 37 -245 109 -335 174 -84 60 -105 92 -62 92 13 0 34 12 48 26 20 22
24 34 22 86 -3 73 -19 94 -80 110 l-43 10 0 198 c0 109 -3 211 -6 228 -11 56
-96 65 -123 13 -7 -12 -11 -102 -11 -234 l0 -214 -30 -6 c-45 -10 -64 -39 -70
-110 l-5 -62 -121 190 c-258 406 -388 669 -420 849 l-7 38 -22 -28 -22 -28
-25 40 c-14 21 -32 53 -41 70 -19 37 -24 33 86 94 42 24 77 48 77 53 0 15 -43
87 -52 87 -5 0 -49 -20 -98 -45 l-89 -45 -42 63 c-69 102 -65 100 -111 76 -21
-11 -41 -26 -44 -34 -3 -8 10 -44 30 -79 20 -35 36 -71 36 -78 0 -8 -26 -27
-58 -42 -32 -15 -68 -35 -81 -45 l-23 -18 26 -51 27 -52 90 46 c87 45 91 46
110 28 22 -20 79 -115 79 -132 0 -6 -25 -12 -57 -14 l-57 -3 45 -29 c24 -16
75 -59 113 -95 165 -158 228 -273 560 -1021 l126 -285 0 -170 c1 -127 5 -180
16 -210 28 -74 28 -72 -10 -85 -43 -14 -66 -52 -66 -109 0 -44 -50 -212 -83
-276 -11 -22 -33 -59 -50 -82 l-30 -43 -71 0 c-102 0 -183 -21 -335 -84 -144
-60 -192 -67 -264 -42 -56 20 -142 75 -203 129 -50 45 -54 52 -54 93 0 38 4
45 29 58 22 12 29 24 34 56 3 23 17 54 34 74 l28 35 108 0 c67 1 120 6 140 15
38 16 153 142 162 179 7 27 14 21 -163 145 -70 50 -92 72 -118 124 -19 37 -35
53 -74 73 -59 30 -70 48 -70 112 0 47 -20 93 -40 93 -6 0 -34 -22 -63 -48 -52
-48 -56 -49 -148 -61 -95 -13 -211 -47 -253 -74 -13 -9 -26 -29 -29 -44 -4
-18 -15 -34 -31 -41 -14 -6 -37 -29 -50 -51 -14 -22 -41 -52 -61 -67 -20 -15
-42 -39 -50 -54 -8 -15 -41 -59 -74 -99 -47 -56 -61 -80 -61 -105 0 -23 -9
-41 -30 -61 -16 -16 -30 -34 -30 -41 0 -7 -16 -43 -37 -81 -20 -37 -40 -90
-44 -117 -5 -27 -26 -78 -49 -116 -28 -48 -40 -80 -40 -107 0 -42 -33 -119
-74 -172 -14 -19 -26 -42 -26 -50 0 -8 -5 -29 -12 -47 -9 -26 -9 -41 2 -75 12
-36 12 -52 -3 -124 -19 -94 -22 -202 -6 -290 19 -111 13 -288 -15 -430 -14
-71 -26 -148 -26 -170 0 -22 -7 -65 -15 -95 -8 -30 -15 -69 -15 -85 0 -17 -7
-58 -16 -90 -22 -87 -29 -212 -14 -273 15 -66 32 -81 54 -47 35 53 86 23 126
-73 20 -46 26 -53 45 -48 32 8 44 -11 58 -90 11 -60 16 -69 38 -74 18 -4 34
-25 69 -94 40 -81 45 -96 45 -160 0 -45 -9 -103 -25 -158 l-25 -87 23 -46 c12
-25 22 -54 22 -64 0 -10 12 -40 26 -67 15 -27 33 -74 41 -104 8 -30 21 -65 29
-78 l15 -22 401 2 401 3 20 28 21 27 -21 27 c-11 16 -40 38 -64 51 -39 20 -78
29 -243 60 l-39 7 -18 75 c-21 87 -24 162 -8 193 7 12 29 42 49 67 54 65 98
137 106 174 8 38 22 48 48 34 22 -12 20 -15 86 87 21 33 51 94 66 135 24 68
26 84 21 170 -3 55 -16 129 -29 176 -23 78 -29 87 -119 184 -105 113 -117 130
-95 130 8 0 51 -39 95 -87 64 -69 81 -83 81 -65 0 15 6 22 20 22 18 0 20 7 20
56 0 64 13 94 39 94 28 0 31 20 18 119 -10 80 -9 92 5 108 13 14 16 37 15 111
-2 80 1 95 16 103 13 8 17 23 17 75 0 106 -38 166 -114 177 -22 4 -49 16 -60
28 l-21 22 25 -7 c14 -4 44 -12 68 -18 31 -7 63 -29 125 -85 45 -42 99 -87
120 -101 33 -22 41 -23 61 -13 20 11 32 8 100 -28 84 -44 112 -50 130 -25 10
14 17 13 60 -6 l49 -21 22 21 c12 11 24 20 28 20 4 0 7 -24 7 -54 0 -63 -26
-116 -131 -273 -55 -82 -69 -110 -69 -141 0 -51 14 -62 77 -62 l53 0 0 -60 0
-60 70 0 70 0 0 -50 0 -50 85 0 85 0 0 -112 c0 -364 -128 -678 -372 -920 l-99
-98 -63 0 c-49 0 -69 -5 -90 -21 -37 -29 -56 -71 -56 -124 0 -38 5 -52 29 -76
l29 -29 359 0 358 0 64 37 c254 150 410 452 483 933 12 80 23 147 24 149 2 2
13 -9 26 -23 13 -15 41 -33 63 -40 33 -12 42 -21 53 -56 13 -39 77 -100 105
-100 6 0 25 -18 44 -39 18 -22 58 -52 89 -67 45 -22 63 -26 101 -20 56 7 104
38 140 88 14 21 32 38 40 38 38 0 94 45 116 92 12 26 28 48 35 48 26 0 72 31
86 58 l14 27 6 -25 c3 -14 17 -83 31 -155 89 -455 245 -810 402 -914 l46 -31
398 0 397 0 26 30 c45 54 47 137 3 201 -23 34 -23 34 -118 39 -108 6 -124 13
-205 96 -191 195 -340 575 -361 920 l-6 104 101 0 102 0 0 45 0 45 65 0 65 0
0 65 0 65 65 0 65 0 0 70 c0 69 -1 72 -41 113 -51 53 -103 159 -129 262 -19
75 -19 81 -3 92 9 7 29 13 44 13 14 0 32 7 39 15 7 8 20 15 30 15 10 0 20 -7
24 -15 12 -31 99 -8 166 45 l41 33 24 -23 c27 -25 44 -20 103 32 27 23 39 28
66 23 23 -5 36 -2 46 10 32 38 110 60 110 30 0 -8 -9 -15 -20 -15 -27 0 -76
-25 -82 -42 -9 -24 1 -201 11 -208 7 -3 7 -32 3 -77 -7 -66 -6 -72 11 -77 18
-4 18 -11 11 -93 -14 -149 -12 -168 14 -171 21 -3 22 -8 22 -88 0 -51 4 -84
10 -84 6 0 13 7 16 15 9 21 32 19 39 -5 3 -11 9 -20 13 -20 4 0 23 28 42 61
52 91 140 179 140 141 0 -4 -32 -50 -70 -102 -39 -52 -88 -131 -110 -174 -49
-95 -78 -188 -61 -194 6 -2 11 -26 11 -56 0 -74 33 -195 77 -285 34 -67 41
-76 64 -74 23 1 29 -6 49 -53 12 -31 53 -97 90 -147 103 -140 118 -180 99
-266 -14 -65 -47 -94 -139 -121 -109 -31 -183 -59 -202 -77 -20 -18 -23 -49
-8 -87 l10 -26 407 2 408 3 13 60 c49 228 64 282 87 310 32 39 31 67 -5 155
-38 92 -37 132 4 245 29 79 36 90 58 93 28 3 38 24 38 79 0 18 10 53 22 78 21
43 40 56 53 35 13 -21 24 -8 50 60 15 38 30 72 35 75 4 2 26 -9 49 -25 22 -17
45 -30 50 -30 18 0 24 46 22 170 -2 106 -10 161 -52 365 -100 477 -99 468
-100 700 0 115 -4 251 -9 300 -7 87 -7 91 16 110 l23 20 -26 67 c-16 44 -46
92 -89 144 -35 42 -64 81 -64 86 0 5 7 11 15 14 24 10 18 26 -33 89 -72 89
-91 135 -57 135 20 0 20 0 -21 61 -20 30 -52 86 -71 124 -19 39 -45 84 -58
101 -15 20 -21 39 -18 56 4 21 -4 32 -56 73 -36 28 -61 56 -61 67 0 22 -127
175 -176 213 -21 16 -34 35 -34 49 0 17 -9 27 -30 36 -17 7 -56 28 -87 46 -53
33 -60 34 -154 34 l-99 0 -21 44 c-12 24 -34 51 -50 60 -27 16 -28 15 -48 -10
-23 -29 -37 -85 -27 -110 14 -35 -7 -65 -75 -109 -39 -25 -78 -60 -92 -82 -32
-51 -52 -67 -123 -103 -67 -34 -152 -103 -164 -134 -11 -29 4 -53 48 -75 20
-11 55 -38 77 -61 57 -60 86 -70 213 -70 124 0 134 -5 171 -93 13 -30 29 -51
41 -54 17 -4 20 -14 20 -56 0 -48 -3 -53 -51 -97 -28 -26 -76 -62 -107 -81
-50 -30 -66 -34 -139 -38 -102 -4 -180 14 -358 82 -131 49 -155 53 -230 32
-16 -5 -29 9 -72 77 -88 140 -114 205 -121 305 l-7 88 -35 17 c-19 10 -39 19
-45 21 -6 2 0 32 14 71 30 86 26 143 -24 296 -20 64 -37 137 -38 165 -1 61 16
96 195 403 66 114 194 338 283 499 90 161 184 324 210 363 51 79 49 79 135 36
27 -13 56 -39 73 -64 l28 -42 57 6 c115 11 116 12 83 99 -19 49 -20 50 -69 56
-54 7 -138 48 -172 85 l-22 22 33 69 c20 40 56 90 87 120 l53 53 -16 31 c-9
17 -14 37 -11 44 2 7 -2 21 -9 32 -14 17 -15 17 -54 -4 -22 -13 -49 -23 -60
-23 -34 0 -51 -27 -50 -80 2 -39 -4 -58 -30 -98 -17 -27 -40 -57 -52 -68 -20
-18 -22 -18 -72 0 -84 30 -134 64 -154 104 -13 27 -23 36 -38 34 -11 -2 -41
-6 -67 -9 -68 -8 -76 -21 -52 -91 l19 -57 65 0 c56 0 73 -5 120 -34 68 -41
100 -70 100 -90 0 -37 -630 -1181 -651 -1181 -10 0 -19 40 -19 91 0 44 1 46
38 57 21 7 48 22 61 36 19 20 22 32 19 87 -3 62 -4 65 -38 81 -19 10 -47 20
-62 23 l-28 5 0 220 c0 215 0 219 -22 234 -12 9 -32 16 -43 16 -11 0 -31 -7
-43 -16 -22 -15 -22 -19 -22 -238 l0 -223 -31 -7 c-17 -3 -44 -19 -60 -35 -25
-25 -29 -37 -29 -81 0 -64 12 -88 56 -106 19 -8 34 -21 34 -29 0 -24 -124
-119 -227 -172 -95 -50 -225 -95 -308 -108 -22 -4 -52 -9 -66 -11 -25 -5 -27
-2 -33 43 -4 26 -21 88 -38 137 l-30 88 21 22 c25 27 28 88 6 130 -14 27 -13
33 12 95 22 55 27 86 31 184 4 117 11 134 40 105 6 -6 34 -12 61 -12 59 -1 97
28 107 82 7 38 -16 99 -41 108 -50 19 23 50 89 37 44 -8 56 -21 56 -59 0 -21
5 -34 13 -34 21 1 57 37 81 81 21 41 24 43 112 65 107 26 138 41 181 86 44 46
64 98 70 187 6 82 17 102 64 121 37 16 57 73 43 128 -8 33 -15 39 -55 52 l-46
14 -7 180 c-3 98 -6 245 -6 326 0 118 -3 150 -15 160 -11 9 -13 25 -9 69 7 61
-2 89 -49 146 l-25 29 -21 -34 c-36 -59 -44 -103 -25 -149 12 -30 13 -44 5
-60 -7 -13 -11 -131 -11 -344 l0 -324 -40 -12 c-52 -15 -70 -43 -70 -107 0
-67 19 -89 90 -106 l55 -13 3 -44 c5 -66 -36 -144 -91 -170 -55 -26 -148 -47
-272 -61 -144 -15 -230 -43 -264 -84 -19 -23 -28 -12 -41 52 -7 31 -19 70 -27
85 -13 26 -12 32 7 69 15 30 20 55 18 91 -3 48 -2 50 30 61 44 15 52 30 52
102 0 76 -21 107 -83 122 l-44 11 -6 212 c-4 117 -7 260 -7 318 0 80 -4 112
-15 129 -12 16 -13 27 -5 41 21 41 12 100 -26 162 -20 32 -41 56 -45 53 -15
-9 -48 -80 -58 -125 -7 -31 -6 -53 4 -81 7 -21 9 -41 4 -44 -5 -3 -9 -157 -9
-342 l-1 -337 -52 -25 c-47 -22 -53 -29 -61 -67 -5 -23 -6 -57 -2 -77 6 -30
13 -37 51 -52 25 -9 45 -19 46 -23 0 -3 2 -27 3 -53 1 -34 8 -54 25 -72 18
-19 22 -33 18 -58 -9 -63 -40 -168 -49 -168 -5 0 -23 13 -39 29 -55 55 -106
71 -271 87 -130 12 -161 18 -207 42 -65 32 -121 106 -121 157 0 37 11 49 55
59 61 15 86 66 65 131 -13 38 -30 51 -100 76 l-45 16 -2 314 c-2 205 -7 321
-14 335 -8 16 -7 28 5 52 9 17 16 39 16 48 0 22 -73 183 -82 184 -4 0 -19 -22
-32 -48z m1737 -209 c13 -15 17 -70 24 -353 l8 -334 42 -9 c49 -9 66 -32 61
-80 -2 -26 -11 -36 -41 -52 -48 -25 -53 -34 -61 -120 -16 -182 -57 -222 -298
-289 -53 -15 -57 -19 -70 -58 -15 -48 -38 -63 -38 -25 0 13 -6 30 -14 36 -22
19 -118 25 -160 11 -46 -15 -66 -55 -39 -76 10 -7 21 -14 24 -14 3 0 11 -12
17 -26 12 -26 7 -69 -11 -91 -15 -20 -85 -15 -128 9 -21 12 -41 20 -43 17 -2
-2 -8 -67 -14 -144 -8 -107 -16 -157 -37 -213 -24 -66 -25 -74 -10 -94 22 -33
20 -95 -5 -110 -26 -17 -25 -24 9 -132 16 -50 32 -117 36 -148 l7 -58 -82 0
-83 0 6 78 c4 42 16 109 27 147 l20 70 -20 27 c-32 43 -36 82 -12 122 l20 34
-35 101 c-26 78 -36 126 -41 204 l-7 102 -28 3 c-16 2 -44 -4 -62 -12 -18 -9
-46 -16 -61 -16 -36 0 -74 36 -74 70 0 34 32 76 65 84 53 13 17 79 -50 92 -20
3 -68 4 -106 2 -83 -6 -109 -24 -109 -75 0 -46 -16 -33 -23 18 -7 55 -28 72
-109 93 -72 19 -137 65 -163 116 -8 16 -20 61 -25 101 -6 40 -17 81 -26 90 -8
9 -36 19 -65 21 -61 6 -73 17 -71 65 2 43 27 73 75 89 l32 11 5 341 c5 333 6
342 26 363 l22 21 18 -28 c17 -25 19 -58 22 -360 l4 -333 51 -11 c61 -13 97
-43 97 -81 0 -33 -21 -57 -58 -65 -54 -13 -72 -31 -72 -75 0 -54 25 -105 77
-156 55 -53 110 -71 254 -83 186 -16 215 -25 274 -81 66 -62 90 -64 106 -6 6
23 20 69 30 102 25 80 24 101 -7 138 -20 24 -24 37 -19 64 8 43 -7 69 -55 93
-46 23 -57 53 -40 104 9 28 19 37 53 48 l42 13 3 339 c1 230 6 344 13 353 18
21 57 16 71 -9 9 -17 14 -110 18 -348 l5 -324 45 -9 c69 -13 86 -38 82 -120
-2 -22 -10 -31 -35 -42 -51 -21 -60 -38 -52 -91 5 -33 2 -52 -9 -69 -19 -28
-21 -72 -5 -112 6 -15 17 -59 23 -98 11 -60 15 -70 34 -73 14 -2 36 8 57 27
65 56 89 65 245 81 124 12 231 36 282 61 70 35 118 118 118 203 0 55 -14 73
-62 81 -72 12 -90 28 -86 83 3 45 5 48 51 70 l47 22 0 330 c0 341 3 370 41
370 9 0 23 -8 32 -17z m-2665 -632 c63 -102 56 -100 163 -45 87 45 92 46 105
29 18 -24 13 -30 -64 -69 -37 -19 -78 -43 -91 -54 l-25 -19 41 -69 c44 -74 83
-117 102 -112 8 2 26 -35 47 -92 119 -326 497 -939 805 -1305 86 -101 248
-354 309 -480 64 -133 80 -179 80 -242 0 -32 5 -45 20 -53 11 -6 28 -27 39
-48 10 -20 30 -59 44 -85 15 -27 29 -69 33 -95 7 -46 87 -192 196 -357 45 -69
62 -82 85 -63 8 7 57 96 109 199 51 103 180 328 285 501 317 516 365 599 539
933 91 176 207 392 257 480 200 354 383 702 383 729 0 21 -63 70 -143 112 -58
31 -76 35 -111 31 -42 -6 -42 -6 -53 34 -6 22 -8 41 -4 43 3 2 27 6 52 10 44
7 47 6 53 -19 5 -21 28 -36 119 -81 70 -34 119 -53 130 -48 9 3 38 38 64 77
39 59 48 80 51 129 4 54 6 58 30 58 14 0 34 8 44 17 23 20 33 10 42 -38 6 -34
4 -38 -28 -57 -26 -15 -45 -43 -80 -112 -25 -51 -46 -100 -46 -109 0 -24 23
-43 114 -95 62 -36 84 -43 111 -39 28 4 33 2 38 -18 3 -13 9 -34 12 -46 7 -22
5 -23 -53 -23 -58 0 -60 1 -70 30 -12 33 -103 85 -170 96 -49 8 -21 49 -299
-441 -912 -1605 -1279 -2269 -1323 -2392 l-23 -63 -44 0 c-26 0 -45 5 -47 13
-16 60 -36 107 -86 197 -160 291 -141 263 -245 352 -77 66 -105 104 -106 142
0 26 -10 39 -59 76 -93 71 -199 196 -267 317 -71 124 -231 459 -383 798 -190
424 -220 488 -276 587 -71 127 -159 243 -234 310 -55 50 -58 55 -39 66 18 12
18 13 1 60 -22 57 -88 162 -102 162 -6 0 -47 -18 -91 -41 -64 -32 -84 -38 -95
-28 -25 21 -15 33 66 78 44 24 80 49 80 56 0 6 -18 46 -40 88 -37 70 -39 77
-23 86 10 6 20 11 23 11 3 0 25 -31 48 -69z m1007 -711 c0 -10 -12 -16 -32
-18 -36 -4 -44 11 -15 27 23 14 47 9 47 -9z m1698 13 c12 -11 -14 -33 -39 -33
-25 0 -34 24 -11 33 18 8 43 8 50 0z m-83 -503 c18 -19 38 -30 55 -30 17 0 37
11 55 30 30 32 49 37 81 20 26 -15 24 -46 -5 -65 -37 -24 -135 -37 -196 -25
-87 17 -109 53 -51 85 34 18 29 20 61 -15z m-1705 -2 c21 -48 109 -50 121 -3
5 19 13 25 34 25 41 0 60 -10 60 -30 0 -61 -151 -89 -245 -44 -40 19 -50 38
-29 59 22 22 48 19 59 -7z m-19 -184 c21 -5 24 -12 24 -53 l-1 -46 -22 27
c-12 15 -31 42 -41 60 -18 29 -18 31 -2 25 10 -4 29 -10 42 -13z m1827 -121
l7 -118 -42 -72 c-23 -40 -43 -71 -44 -70 -2 2 1 50 6 108 5 57 9 141 10 187
l0 82 28 0 29 0 6 -117z m-1699 -4 c3 -62 5 -114 2 -116 -2 -2 -18 15 -35 39
-32 43 -39 86 -25 157 5 24 12 31 29 31 21 0 22 -5 29 -111z m108 17 c67 -58
204 -139 298 -175 392 -152 785 -99 1088 144 l92 74 0 -63 c0 -154 -30 -346
-66 -423 -24 -48 -96 -126 -151 -161 -104 -66 -215 -94 -446 -113 -168 -13
-301 -3 -428 32 -122 34 -131 41 -278 256 -74 108 -140 213 -147 233 -15 42
-31 240 -20 240 4 0 30 -20 58 -44z m1671 -424 c29 -87 48 -164 48 -190 -2
-90 -56 -142 -149 -142 -48 0 -58 4 -88 34 -31 31 -34 39 -34 97 0 54 5 72 41
138 73 133 120 211 127 211 4 -1 29 -67 55 -148z m-1854 -125 c22 -48 60 -117
85 -153 l45 -64 -60 0 c-55 0 -64 3 -94 33 -25 25 -34 45 -44 98 -12 73 -15
188 -4 215 5 15 9 13 19 -12 7 -16 31 -69 53 -117z m1476 -103 c-47 -40 -163
-91 -277 -121 -94 -25 -119 -28 -288 -28 -162 0 -195 3 -269 23 -82 22 -167
59 -158 68 2 2 49 -7 103 -20 54 -14 147 -30 206 -36 187 -20 403 15 598 98
113 47 125 50 85 16z m115 -40 c0 -15 12 -37 28 -53 l27 -27 -41 -31 -41 -31
-17 28 c-11 19 -14 39 -10 61 15 76 54 114 54 53z m-170 -69 c0 -22 -120 -215
-164 -263 -65 -72 -277 -115 -452 -93 -141 18 -190 35 -202 70 -6 16 -19 34
-30 40 -14 8 -21 25 -25 71 -4 33 -14 76 -22 96 -8 21 -14 39 -12 41 2 1 30
-6 62 -17 146 -50 387 -69 535 -41 73 13 232 64 270 86 27 15 40 18 40 10z
m375 -50 c0 -31 -49 -28 -53 3 -3 20 0 23 25 20 20 -2 28 -8 28 -23z m-1807
-20 c25 -42 62 -54 97 -31 14 9 25 23 25 30 0 7 7 19 16 26 13 11 18 10 36 -7
49 -49 -31 -88 -164 -81 -78 5 -133 27 -126 51 4 13 66 47 85 47 6 0 20 -16
31 -35z m76 29 c26 -10 20 -44 -8 -44 -28 0 -40 14 -32 35 6 16 16 18 40 9z
m1861 -4 c37 -14 30 -48 -15 -74 -47 -28 -208 -35 -263 -13 -42 18 -50 49 -18
67 32 17 62 12 87 -15 16 -17 34 -25 57 -25 39 0 57 15 57 47 0 20 5 23 34 23
19 0 47 -5 61 -10z m-391 -37 c10 -21 22 -77 26 -125 10 -103 42 -183 168
-421 66 -125 85 -170 88 -210 2 -29 11 -227 19 -442 9 -214 20 -406 25 -426 5
-19 32 -72 59 -116 l49 -80 -81 57 c-44 32 -109 72 -145 90 -48 24 -61 35 -51
41 8 5 42 26 77 45 34 20 62 39 62 43 0 4 -25 31 -56 61 -30 30 -84 92 -120
136 -70 91 -141 157 -250 236 l-73 53 -1 403 0 402 83 145 c45 80 87 145 93
145 6 0 18 -17 28 -37z m-1569 -90 c61 -17 169 -12 215 12 l31 16 -3 -27 c-4
-36 -49 -52 -150 -53 -82 -1 -181 27 -191 53 -8 20 4 28 28 21 11 -4 43 -13
70 -22z m1985 -2 c0 -63 -298 -81 -330 -20 -14 25 6 34 44 19 38 -14 182 -11
231 5 54 18 55 18 55 -4z m-1611 -66 c56 -47 71 -66 71 -87 0 -18 13 -42 35
-67 l35 -38 0 -230 c0 -126 -3 -291 -7 -366 l-6 -136 -98 -76 c-120 -94 -225
-220 -289 -344 -21 -42 -21 -44 -3 -61 10 -10 51 -35 91 -56 39 -20 72 -40 72
-45 0 -4 -33 -25 -74 -47 -41 -22 -115 -70 -164 -106 -49 -36 -92 -66 -96 -66
-3 0 20 44 52 98 l57 97 -2 235 c-1 129 -8 349 -16 488 l-15 253 80 127 c114
182 144 249 169 380 13 62 26 111 30 110 4 -2 39 -30 78 -63z m-338 -41 c31
-3 80 -1 113 6 32 6 60 10 62 7 8 -7 -15 -98 -37 -150 -23 -55 -85 -159 -136
-229 l-34 -47 -43 33 c-24 18 -64 38 -88 44 -25 7 -64 22 -86 35 l-41 23 35
50 c51 71 81 133 100 207 l16 65 42 -19 c24 -10 67 -21 97 -25z m2026 -102
c39 -70 74 -134 77 -142 7 -18 -58 -62 -152 -102 -35 -16 -76 -36 -90 -47
l-27 -19 -94 165 c-72 125 -96 178 -101 215 -7 49 -6 50 19 44 129 -29 173
-29 251 3 14 5 30 10 35 10 6 1 42 -57 82 -127z m-917 -113 c0 -19 -190 -379
-200 -379 -10 0 -220 346 -220 362 0 4 69 8 153 9 83 0 172 4 197 8 66 12 70
12 70 0z m-445 -145 c81 -129 150 -265 165 -326 14 -54 2 -85 -33 -92 -12 -3
-64 -14 -116 -25 -52 -12 -97 -18 -100 -15 -8 8 -14 489 -6 530 3 19 10 34 15
34 4 0 38 -48 75 -106z m575 -45 c0 -64 -3 -183 -6 -266 l-7 -149 -91 21
c-154 37 -154 36 -132 110 23 75 217 429 227 414 5 -8 9 -66 9 -130z m1809 94
c-6 -15 -26 -53 -45 -84 -25 -42 -34 -68 -34 -101 0 -40 -6 -50 -66 -116 -40
-44 -103 -97 -162 -136 -100 -66 -471 -270 -478 -263 -5 5 -26 449 -21 453 2
2 25 -8 52 -22 28 -14 69 -30 93 -36 34 -8 42 -15 42 -33 0 -20 7 -24 43 -30
66 -10 73 -14 85 -40 11 -23 17 -25 80 -25 61 0 74 4 113 31 108 77 189 177
189 233 0 21 10 52 24 74 13 20 35 58 50 85 28 50 53 57 35 10z m-4189 -47
c17 -25 30 -58 30 -74 0 -40 60 -127 159 -234 l81 -86 63 -6 c72 -8 117 0 117
20 0 15 24 22 85 26 37 3 40 5 43 35 2 24 9 33 30 38 15 3 43 17 64 30 l36 24
6 -102 c8 -150 14 -347 9 -347 -2 0 -11 4 -21 10 -9 5 -77 38 -150 74 -160 79
-263 148 -357 241 -92 92 -195 238 -195 277 0 16 -12 45 -26 63 -14 19 -23 39
-19 45 9 15 12 14 45 -34z m3299 -142 l27 -16 13 -264 12 -265 -23 -29 c-13
-15 -34 -47 -47 -69 -14 -23 -62 -71 -108 -107 -46 -36 -88 -74 -93 -85 -15
-28 2 -54 50 -73 62 -25 119 -21 183 14 31 17 61 30 66 30 5 0 12 -18 16 -41
4 -22 36 -99 71 -170 l63 -129 -132 0 c-103 0 -137 3 -154 15 -26 18 -129 169
-160 235 -15 31 -25 80 -33 155 -10 116 -30 572 -30 713 l0 82 58 1 c31 1 71
5 87 9 51 13 106 11 134 -6z m-2358 -15 c31 -6 72 -10 91 -7 l35 4 7 -111 c18
-318 28 -615 24 -731 -4 -146 -10 -163 -108 -296 l-50 -68 -166 0 c-129 0
-164 3 -158 13 4 6 29 44 54 82 80 119 110 179 110 218 0 47 21 49 72 7 43
-36 78 -50 121 -50 55 0 77 10 77 35 0 29 -34 74 -167 223 l-110 123 -6 117
c-4 64 -10 183 -13 263 l-7 146 29 20 c30 21 67 32 94 27 8 -1 40 -8 71 -15z
m1922 -1003 c86 -36 189 -100 249 -156 l53 -49 -1039 -1 -1039 0 19 21 c48 54
271 179 318 179 12 0 61 -18 111 -39 308 -135 654 -159 939 -66 81 26 250 107
261 125 10 17 67 11 128 -14z m743 -270 c3 -14 3 -30 -1 -35 -4 -8 -467 -11
-1521 -11 l-1514 0 0 25 0 25 223 1 c122 1 771 5 1442 8 671 4 1253 8 1292 9
69 2 73 1 79 -22z m-276 -226 c0 -20 -7 -20 -1245 -20 -1238 0 -1245 0 -1245
20 0 20 7 20 1245 20 1238 0 1245 0 1245 -20z m-1337 -121 l16 -40 -33 -47
c-19 -26 -45 -70 -59 -98 -15 -30 -35 -54 -47 -57 -53 -14 8 -82 75 -82 39 0
44 -3 55 -33 12 -35 80 -112 98 -112 20 0 73 52 93 91 17 34 24 39 55 39 44 0
91 24 99 50 4 14 -2 30 -19 51 -14 16 -31 47 -37 68 -6 22 -28 61 -48 87 l-36
48 18 38 19 38 433 0 432 0 6 -110 c21 -360 171 -737 370 -927 l65 -63 -134 0
c-144 0 -193 -11 -213 -48 -15 -29 -14 -64 5 -90 24 -34 35 -27 28 20 -6 33
-4 44 11 55 44 31 85 3 85 -58 0 -83 -84 -123 -175 -85 -106 45 -243 243 -346
503 -35 89 -88 301 -122 488 l-24 130 -71 3 c-58 2 -72 0 -72 -12 0 -25 -52
-78 -97 -97 -26 -11 -43 -25 -43 -35 0 -42 -76 -114 -121 -114 -8 0 -24 -18
-37 -41 -57 -99 -199 -91 -258 15 -15 27 -33 43 -59 52 -51 17 -74 41 -87 91
-8 32 -15 43 -30 43 -38 0 -88 30 -109 65 -22 38 -46 43 -130 29 l-36 -6 -7
-83 c-23 -306 -127 -627 -264 -820 -108 -152 -208 -225 -286 -211 -58 11 -86
74 -50 111 36 36 103 -3 76 -45 -15 -25 -15 -30 2 -30 40 0 52 79 16 114 -19
19 -36 21 -213 27 -105 4 -194 7 -196 8 -2 0 35 41 83 91 212 220 328 502 355
864 5 65 8 126 6 135 -1 9 0 19 2 24 2 4 215 7 472 7 l468 0 16 -41z m197 27
c0 -22 -49 -56 -82 -56 -28 0 -78 38 -78 60 0 6 31 10 80 10 63 0 80 -3 80
-14z m3 -104 c9 -10 32 -51 50 -93 19 -41 42 -81 51 -88 22 -19 3 -41 -36 -41
-31 0 -34 4 -43 71 -6 49 -51 129 -72 129 -17 0 -17 0 6 -52 41 -97 35 -175
-19 -240 -23 -28 -30 -31 -43 -20 -23 19 -51 109 -50 162 0 29 9 64 27 98 30
58 28 76 -4 47 -34 -31 -57 -77 -64 -127 -8 -53 -31 -74 -72 -64 -30 8 -31 32
-3 48 11 7 39 50 61 95 38 78 42 82 76 86 90 9 119 7 135 -11z m1637 -1059
c27 -30 31 -42 27 -70 -3 -18 -15 -47 -27 -63 l-21 -30 -247 0 c-173 1 -242 4
-229 11 39 23 62 120 37 159 -14 22 27 27 241 29 l187 1 32 -37z m-2975 -23
c-20 -38 -19 -58 4 -103 l19 -37 -248 0 -248 0 -26 31 c-14 17 -26 41 -26 54
0 13 12 37 26 54 l26 31 244 0 245 0 -16 -30z"/>
<path d="M4846 5048 c-53 -280 -129 -473 -279 -713 l-56 -90 62 -6 c34 -4 107
-7 162 -8 l101 -1 64 103 c147 235 240 498 240 678 l0 59 -145 0 c-142 0 -145
0 -149 -22z m254 -40 c0 -50 -33 -208 -61 -293 -36 -110 -111 -264 -178 -367
l-50 -78 -111 0 c-60 0 -110 2 -110 5 0 2 29 55 64 117 107 187 199 418 227
572 l12 66 104 0 c100 0 103 -1 103 -22z"/>
<path d="M6480 5065 c0 -3 12 -60 26 -127 52 -251 103 -400 196 -580 l61 -118
168 0 169 0 -51 63 c-126 156 -211 357 -280 665 l-23 102 -133 0 c-73 0 -133
-2 -133 -5z m263 -152 c54 -225 141 -450 218 -569 l49 -75 -107 3 -108 3 -61
120 c-85 170 -169 420 -199 598 l-6 37 93 0 93 0 28 -117z"/>
<path d="M0 1925 l0 -1925 5760 0 5760 0 0 1925 0 1925 -5760 0 -5760 0 0
-1925z m4500 1360 c0 -3 -18 -16 -39 -31 -45 -29 -55 -48 -41 -74 7 -13 7 -21
-1 -25 -6 -4 -14 -16 -18 -27 -7 -19 -8 -19 -24 -3 -21 21 -21 29 0 50 14 14
14 20 4 37 -10 17 -9 23 6 40 10 11 27 24 38 29 22 9 75 12 75 4z m109 -49
c-10 -23 -21 -68 -25 -98 -5 -41 -10 -55 -20 -51 -26 10 -28 46 -3 66 21 17
22 20 6 28 -25 14 -21 44 8 59 14 7 25 17 25 22 0 15 -18 8 -48 -20 -39 -36
-66 -27 -50 16 10 26 13 27 68 24 l58 -4 -19 -42z m2509 33 c12 -18 11 -24 -1
-36 -12 -13 -18 -10 -45 16 -17 17 -36 31 -43 31 -8 0 2 -14 20 -31 l33 -30
-20 -22 c-21 -22 -21 -23 -2 -35 22 -14 26 -42 8 -60 -20 -20 -28 -14 -28 26
-1 20 -9 62 -20 92 -11 30 -19 58 -20 63 0 4 24 7 53 7 42 0 55 -4 65 -21z
m97 13 c29 -21 36 -41 25 -63 -10 -18 -9 -24 4 -31 20 -11 21 -42 1 -58 -9 -7
-16 -11 -18 -9 -22 38 -26 53 -21 77 6 29 -3 41 -62 79 -17 10 -14 12 21 12
22 0 45 -3 50 -7z m192 -24 c73 -18 123 -45 123 -67 0 -4 -8 -16 -19 -25 -17
-16 -19 -16 -23 2 -5 17 -108 86 -116 77 -3 -2 9 -15 24 -29 27 -23 28 -26 12
-42 -15 -15 -17 -15 -27 4 -6 11 -34 33 -64 50 -29 16 -59 38 -67 47 -14 16
-12 17 30 10 25 -4 82 -16 127 -27z m-3032 10 c-5 -13 -41 -37 -98 -66 -29
-16 -46 -57 -29 -74 13 -13 -17 -68 -35 -61 -18 7 -16 50 3 61 15 8 15 11 0
34 -17 25 -16 26 16 52 18 14 29 26 24 26 -17 0 -116 -62 -125 -78 -9 -16 -11
-16 -27 0 -17 17 -17 18 2 39 24 27 48 36 154 59 104 23 121 24 115 8z m2610
-30 c23 -58 33 -161 24 -253 -4 -42 -10 -79 -13 -82 -2 -3 -13 -2 -23 1 -16 5
-18 15 -15 78 4 81 -11 173 -38 235 l-18 42 26 10 c15 5 30 10 33 10 4 1 14
-18 24 -41z m-2293 -56 c-20 -55 -25 -87 -26 -174 -1 -83 -4 -109 -15 -113
-27 -10 -34 14 -39 123 -3 83 0 122 13 168 22 77 29 85 64 73 l28 -10 -25 -67z
m2480 57 c16 -9 19 -17 14 -44 -4 -19 -2 -36 4 -40 15 -9 12 -36 -7 -57 -15
-17 -15 -19 0 -36 23 -25 21 -39 -8 -58 l-25 -16 23 -18 c21 -18 22 -18 3 -39
-11 -12 -29 -21 -42 -21 -13 0 -29 -8 -36 -18 -18 -25 -84 -11 -73 16 4 9 9
52 12 95 6 78 10 86 31 65 16 -16 15 -38 -4 -59 -12 -13 -13 -22 -6 -36 8 -13
7 -23 -5 -36 -9 -9 -13 -20 -9 -25 4 -4 16 3 26 15 9 12 20 20 23 17 2 -3 14
7 26 22 16 20 18 30 10 45 -7 15 -6 23 6 35 18 18 20 45 4 61 -8 8 -6 18 6 37
16 24 16 28 1 50 -9 14 -13 32 -10 40 7 19 9 19 36 5z m-2688 -16 c4 -9 2 -21
-4 -27 -15 -15 -12 -47 5 -66 14 -15 14 -18 0 -30 -18 -15 -19 -42 -2 -59 6
-6 12 -28 12 -49 0 -27 5 -39 22 -47 13 -7 31 -19 41 -28 26 -23 39 -21 18 2
-12 13 -15 27 -11 42 9 27 19 12 29 -43 6 -36 5 -38 -26 -46 -28 -7 -35 -6
-42 10 -7 15 -28 24 -38 16 -2 -1 -13 4 -25 11 -26 14 -30 49 -7 58 13 5 11
10 -11 30 -25 24 -25 26 -10 50 15 22 15 26 1 42 -20 22 -20 45 -1 61 11 9 12
16 2 30 -9 15 -8 23 7 39 23 25 32 26 40 4z m2399 -20 c21 -53 30 -143 22
-217 l-7 -63 -77 14 c-42 8 -101 21 -131 30 -63 17 -200 80 -200 91 0 20 323
180 366 182 7 0 18 -17 27 -37z m422 7 c4 -6 1 -18 -6 -26 -10 -13 -14 -13
-29 1 -24 22 -15 58 11 45 10 -6 21 -15 24 -20z m-2948 -30 c-14 -20 -14 -20
-31 -1 -16 18 -16 20 6 35 20 14 23 14 31 1 5 -9 3 -23 -6 -35z m523 9 c96
-44 250 -131 250 -140 0 -29 -298 -129 -382 -129 -27 0 -28 2 -30 53 -4 91 2
161 19 211 15 46 16 48 47 42 17 -4 60 -20 96 -37z m2761 -16 c7 -7 5 -14 -7
-23 -14 -12 -18 -11 -32 7 -10 11 -27 26 -39 32 -13 7 -23 16 -23 20 0 10 85
-20 101 -36z m-3570 19 c-13 -9 -33 -27 -45 -39 -14 -14 -27 -19 -35 -13 -22
13 -8 32 39 50 58 23 71 24 41 2z m3050 8 c23 -13 24 -28 3 -51 -16 -18 -17
-17 -36 7 -16 20 -18 27 -8 39 15 18 16 18 41 5z m-2582 -14 c9 -11 9 -19 -1
-35 -15 -24 -29 -26 -46 -9 -16 16 -15 23 4 42 19 20 28 20 43 2z m2816 -6
c17 -19 17 -21 1 -39 -15 -16 -15 -19 -1 -31 20 -16 19 -39 -2 -63 -17 -18
-17 -19 0 -28 24 -14 22 -56 -4 -69 -20 -11 -20 -12 -2 -32 17 -20 17 -21 -12
-44 -40 -32 -77 -30 -125 5 -34 25 -38 30 -25 41 17 14 20 46 4 55 -7 5 -4 14
7 26 13 14 20 16 31 8 17 -15 17 -34 -2 -49 -17 -14 -20 -30 -5 -30 17 0 39
54 29 72 -6 11 -4 20 6 28 18 15 20 51 4 67 -8 8 -6 18 7 37 24 32 32 32 40 1
4 -17 1 -32 -10 -44 -15 -16 -15 -19 -1 -31 20 -16 19 -39 -1 -62 -14 -14 -15
-20 -4 -33 11 -13 9 -20 -10 -40 -13 -14 -19 -25 -13 -25 18 0 45 38 41 58 -2
10 3 31 11 45 12 22 12 31 2 51 -10 19 -10 27 0 44 10 16 10 26 1 46 -11 25
-7 56 8 56 4 0 15 -9 25 -20z m-3052 -4 c3 -8 1 -28 -6 -45 -9 -26 -9 -34 5
-47 15 -15 15 -19 1 -40 -14 -22 -14 -26 0 -48 9 -13 13 -33 10 -45 -3 -13 1
-29 12 -41 27 -30 40 -24 16 6 -16 21 -18 30 -10 41 9 10 8 18 -5 31 -21 24
-20 41 1 65 17 18 17 19 0 28 -20 12 -22 42 -3 58 21 17 51 -32 36 -59 -12
-22 -5 -60 10 -60 5 0 7 -14 3 -30 -6 -32 17 -70 42 -70 7 0 17 -6 23 -13 9
-10 2 -19 -30 -40 -53 -34 -84 -34 -120 0 -26 24 -27 28 -12 44 14 16 14 18
-5 29 -26 13 -28 55 -4 69 17 9 17 10 0 28 -21 24 -22 47 -2 63 13 11 13 15 0
33 -13 18 -13 23 2 39 19 22 29 23 36 4z m3162 -2 c15 -15 15 -18 -1 -35 -16
-18 -16 -20 -1 -37 22 -24 22 -48 0 -61 -17 -9 -17 -10 0 -28 21 -24 22 -41 1
-64 -11 -13 -13 -22 -6 -36 16 -30 -8 -51 -69 -59 -48 -6 -53 -6 -41 8 7 9 23
19 35 22 29 7 50 42 39 63 -6 11 -4 25 7 44 14 24 14 32 3 50 -10 15 -11 24
-3 32 14 14 14 50 0 64 -12 12 -3 53 11 53 5 0 16 -7 25 -16z m-3269 -11 c10
-15 10 -21 -3 -35 -12 -14 -19 -15 -30 -7 -16 14 -17 31 -1 47 16 16 18 15 34
-5z m3380 -4 c15 -17 16 -23 5 -41 -11 -18 -11 -22 3 -30 22 -12 20 -41 -4
-63 l-20 -18 20 -14 c26 -18 25 -31 -1 -60 -18 -18 -20 -25 -9 -38 14 -17 9
-20 -57 -29 -26 -4 -43 -2 -43 4 0 5 6 10 13 10 23 0 49 37 45 63 -1 13 4 32
11 41 11 13 12 24 5 44 -8 20 -7 33 4 50 14 21 13 26 -6 51 -15 21 -18 31 -9
40 15 15 21 14 43 -10z m-3491 -29 c-18 -20 -20 -61 -3 -78 9 -9 9 -15 0 -24
-16 -16 -15 -43 3 -58 9 -8 13 -21 9 -37 -7 -25 18 -63 42 -63 7 0 16 -5 19
-11 7 -10 -23 -8 -94 7 -22 5 -22 6 -7 23 16 17 15 19 -9 35 -30 20 -31 30 -6
55 19 19 19 20 0 37 -24 22 -24 40 1 61 18 16 19 18 2 36 -16 18 -16 20 7 38
18 15 27 17 38 8 11 -10 11 -14 -2 -29z m3609 18 c7 -12 6 -21 -4 -32 -12 -15
-14 -15 -31 0 -15 13 -16 20 -6 35 13 21 26 20 41 -3z m-3728 -6 c17 -26 -8
-61 -31 -42 -18 15 -19 32 -3 48 16 16 21 15 34 -6z m3792 -5 c18 -14 15 -41
-8 -62 -17 -15 -17 -19 -5 -32 20 -20 19 -50 -3 -62 -14 -7 -21 -5 -30 9 -7
12 -8 21 -2 25 13 8 13 62 0 70 -7 4 -6 13 1 26 6 11 8 27 5 34 -5 15 18 10
42 -8z m-3854 -2 c-4 -8 -1 -21 5 -28 8 -10 7 -22 -1 -45 -9 -24 -10 -37 -1
-50 7 -12 8 -24 1 -36 -9 -17 -11 -17 -29 0 -23 21 -24 37 -4 54 12 10 12 15
-6 39 -26 36 -13 65 38 80 1 1 0 -6 -3 -14z m3510 -7 c11 -15 12 -26 5 -40
-11 -21 -29 -24 -29 -4 0 7 -7 19 -15 26 -12 10 -13 16 -4 26 16 19 25 17 43
-8z m107 2 c24 -14 25 -46 0 -59 -16 -9 -20 -7 -25 14 -4 14 -11 25 -16 25 -5
0 -7 7 -4 15 7 18 18 19 45 5z m358 -35 c2 -10 -5 -25 -15 -32 -23 -17 -34
-17 -34 1 0 8 -8 21 -18 28 -10 7 -21 20 -24 29 -6 15 -2 15 40 5 32 -9 48
-18 51 -31z m-4039 27 c0 -5 -11 -19 -25 -32 -14 -13 -25 -29 -25 -37 0 -16
-5 -16 -31 -3 -10 6 -19 20 -19 30 0 11 1 20 3 20 1 0 20 7 42 15 47 17 55 18
55 7z m305 -3 c4 -5 -1 -19 -11 -30 -17 -19 -17 -23 -3 -48 15 -26 15 -30 -1
-51 -10 -13 -22 -20 -29 -16 -16 10 -14 41 4 56 14 12 13 15 -5 35 -24 26 -24
29 -4 49 18 18 40 21 49 5z m3505 -27 c0 -10 -5 -23 -12 -30 -16 -16 -50 37
-36 55 14 17 48 -2 48 -25z m-3627 15 c7 -18 -27 -62 -42 -53 -17 11 -13 44 7
55 23 14 29 13 35 -2z m3101 -48 c-16 -18 -17 -17 -34 4 -17 20 -17 23 -2 40
16 18 17 18 35 -4 16 -20 16 -23 1 -40z m-2588 33 c15 -23 -7 -57 -31 -49 -18
7 -20 38 -3 55 16 16 21 15 34 -6z m2702 6 c24 -24 9 -68 -23 -68 -7 0 -14 50
-9 64 7 19 16 20 32 4z m711 6 c34 -7 40 -27 15 -55 -12 -13 -13 -22 -5 -37
14 -26 4 -52 -19 -52 -25 0 -32 38 -13 67 15 22 15 26 -6 54 -23 31 -21 33 28
23z m-4231 -15 c-30 -17 -38 -43 -23 -72 16 -32 9 -69 -14 -65 -11 3 -16 14
-16 40 0 20 -6 43 -12 49 -7 7 -13 21 -13 30 0 17 20 25 70 27 21 1 23 0 8 -9z
m470 -14 c11 -23 7 -55 -6 -55 -11 0 -42 33 -42 45 0 12 20 35 30 35 4 0 12
-11 18 -25z m231 11 c12 -14 11 -18 -16 -65 -2 -2 -9 2 -18 9 -18 15 -20 41
-3 58 16 16 23 15 37 -2z m-572 -61 c-13 -26 -13 -26 -31 -6 -18 19 -18 22 -1
47 17 26 17 26 31 5 13 -17 13 -24 1 -46z m3963 50 c14 -16 5 -51 -14 -58 -20
-8 -40 41 -25 59 15 18 24 18 39 -1z m255 1 c13 -9 16 -18 10 -32 -4 -10 -7
-25 -6 -32 4 -23 -20 -42 -55 -42 -28 0 -33 4 -36 28 -5 37 20 76 38 61 18
-15 18 -33 -1 -49 -21 -18 -19 -33 4 -21 38 21 37 75 -2 91 -21 8 -21 9 4 9
14 1 34 -5 44 -13z m-4471 -21 c-19 -19 -23 -29 -15 -43 14 -25 40 -46 48 -38
4 3 -3 13 -15 22 -25 17 -28 36 -9 53 22 18 46 -17 40 -56 -5 -30 -9 -33 -38
-33 -37 0 -60 21 -51 46 4 9 1 23 -6 31 -10 12 -9 18 7 29 10 8 29 14 41 14
l23 0 -25 -25z m4105 11 c12 -14 5 -46 -10 -46 -5 0 -9 -7 -9 -15 0 -8 4 -15
9 -15 20 0 19 -33 -2 -65 -12 -19 -25 -35 -28 -35 -13 0 -16 52 -6 80 7 19 8
36 1 51 -8 17 -7 27 5 41 19 22 25 22 40 4z m221 -15 c0 -17 -18 -41 -31 -41
-16 0 -18 34 -3 51 19 21 34 16 34 -10z m275 19 c28 -1 29 -1 11 -15 -10 -8
-24 -16 -30 -19 -6 -2 3 -15 19 -29 l30 -25 -72 -4 -72 -3 7 30 c3 17 6 41 7
53 0 22 3 23 35 18 19 -3 49 -6 65 -6z m-4666 -17 c0 -10 2 -33 4 -50 l3 -33
-70 0 -71 1 30 24 c29 24 29 25 10 39 -11 9 -24 16 -30 17 -11 2 65 15 102 17
15 2 22 -4 22 -15z m214 -38 c-9 -16 -11 -16 -26 0 -10 9 -17 22 -17 29 0 24
14 27 33 7 14 -14 17 -23 10 -36z m222 35 c14 -16 16 -23 7 -32 -15 -15 -16
-50 -1 -65 6 -6 7 -22 2 -43 l-8 -32 -28 38 c-27 38 -27 39 -7 58 20 20 20 20
-2 43 -17 18 -19 25 -8 38 16 20 23 19 45 -5z m615 -20 c0 -45 -15 -52 -32
-15 -8 19 -8 28 2 40 21 25 30 17 30 -25z m2840 -14 c0 -13 -7 -29 -15 -36
-12 -10 -15 -9 -15 7 0 10 -5 24 -10 29 -6 6 -8 18 -4 27 9 24 44 3 44 -27z
m-3178 -17 c-21 -36 -30 -37 -38 -2 -8 31 20 60 42 42 10 -8 9 -16 -4 -40z
m3281 33 c15 -17 15 -20 1 -41 l-16 -23 -18 29 c-12 19 -14 32 -7 41 13 16 21
15 40 -6z m347 -20 c0 -4 -7 -16 -15 -26 -24 -32 -16 -43 9 -13 18 23 25 26
34 15 16 -20 2 -34 -43 -47 -53 -14 -60 -14 -45 4 7 8 10 24 7 36 -8 32 12 60
35 48 10 -5 18 -13 18 -17z m-4061 -33 c-7 -13 -6 -25 1 -39 10 -19 9 -20 -17
-14 -53 13 -73 24 -73 38 0 27 18 26 38 -1 11 -16 23 -25 27 -21 4 4 -3 19
-15 35 -20 26 -20 28 -4 40 25 18 58 -11 43 -38z m209 -2 c-15 -32 -24 -34
-37 -9 -7 14 -6 25 6 41 13 20 17 21 29 9 12 -11 12 -19 2 -41z m3626 31 c7
-12 6 -21 -4 -33 -13 -15 -15 -15 -31 7 -13 17 -15 26 -7 36 13 15 28 12 42
-10z m-3098 -45 c-6 -14 -8 -14 -26 2 -15 14 -17 22 -9 37 11 20 11 20 26 -1
8 -12 12 -29 9 -38z m2570 42 c6 -15 -11 -45 -26 -45 -14 0 -20 32 -9 46 15
18 28 18 35 -1z m-2925 -24 c11 -18 13 -34 8 -43 -10 -18 24 -68 46 -68 7 0
18 -7 25 -15 11 -13 6 -14 -36 -9 -56 8 -74 19 -74 44 0 10 6 20 13 23 8 3 3
11 -13 24 -22 18 -23 24 -12 47 15 33 23 33 43 -3z m236 7 c6 -9 5 -21 -2 -36
l-13 -24 -15 22 c-25 36 4 71 30 38z m3373 -14 c0 -9 -5 -25 -11 -36 -11 -21
-12 -21 -24 3 -11 20 -11 27 2 41 17 19 33 15 33 -8z m-3945 -1 c18 -24 0 -60
-21 -42 -15 12 -19 41 -7 52 10 10 15 9 28 -10z m289 -67 c-14 -36 -39 -9 -29
31 6 26 6 26 21 5 7 -11 11 -27 8 -36z m3263 39 c3 -9 -3 -25 -13 -36 l-19
-21 -6 24 c-9 37 24 67 38 33z m107 -1 c4 -10 -1 -25 -11 -36 -17 -19 -17 -19
-25 3 -5 13 -4 27 3 35 15 18 25 18 33 -2z m230 -1 c7 -18 -17 -43 -40 -43
-10 0 -8 8 4 30 20 34 27 37 36 13z m-3818 -50 c-6 -6 -56 16 -56 25 0 4 5 13
12 20 9 9 16 6 29 -15 10 -15 17 -29 15 -30z m326 8 l-8 -22 -18 20 c-16 17
-17 23 -6 36 19 23 44 -3 32 -34z m3377 -2 c-12 -23 -18 -24 -34 -2 -11 14
-10 19 4 29 23 17 44 -1 30 -27z m-3599 15 c11 -12 11 -18 -2 -31 -19 -18 -38
-10 -38 16 0 33 20 40 40 15z m3089 -341 c11 -23 10 -29 -4 -40 -15 -10 -21
-7 -42 18 -14 16 -32 29 -41 29 -11 0 -5 -10 18 -30 l35 -30 -22 -19 c-22 -19
-22 -19 -2 -37 23 -21 22 -57 -2 -62 -13 -2 -17 9 -22 53 -3 31 -14 74 -25 95
l-19 39 31 4 c75 9 82 8 95 -20z m114 -5 c17 -23 18 -30 7 -43 -11 -13 -10
-18 4 -33 20 -23 20 -36 -1 -57 -15 -16 -17 -15 -28 13 -7 16 -11 40 -8 54 4
21 -2 31 -34 54 -61 45 -61 45 -9 42 40 -2 53 -8 69 -30z m-2738 14 c-6 -4
-27 -21 -48 -36 -31 -23 -37 -33 -33 -51 3 -13 0 -37 -7 -54 -13 -30 -14 -31
-30 -13 -22 24 -21 39 2 54 17 11 18 14 4 34 -14 21 -13 25 11 49 19 19 35 25
68 25 23 0 38 -4 33 -8z m96 2 l37 -6 -18 -42 c-10 -22 -22 -65 -26 -94 -7
-53 -18 -61 -38 -29 -8 12 -5 22 13 41 21 22 22 26 7 32 -25 9 -19 40 12 63
15 11 21 21 14 21 -8 0 -26 -13 -42 -29 -25 -25 -30 -26 -43 -13 -12 11 -13
20 -5 38 12 25 27 28 89 18z m2825 -24 c103 -27 137 -58 99 -90 -13 -11 -18
-10 -30 7 -18 26 -102 76 -118 70 -7 -2 3 -11 21 -21 36 -19 38 -24 18 -52
-13 -17 -12 -21 6 -41 21 -22 21 -23 3 -43 -18 -20 -18 -20 -32 7 -10 20 -11
34 -4 50 8 17 6 27 -10 47 -11 14 -24 26 -29 26 -11 0 -100 60 -100 67 0 9 91
-5 176 -27z m-3041 10 c-4 -6 -31 -24 -60 -41 -71 -40 -81 -53 -69 -87 13 -34
-14 -90 -34 -70 -17 17 -15 38 5 60 15 17 15 19 0 36 -23 25 -22 29 16 48 17
10 27 19 20 21 -16 6 -100 -44 -117 -69 -13 -17 -15 -18 -30 -3 -12 13 -14 21
-5 36 12 24 40 35 144 59 93 21 139 25 130 10z m2610 -32 c23 -58 33 -161 24
-253 -8 -85 -10 -88 -31 -80 -12 5 -16 31 -21 118 -3 76 -12 131 -26 171 -25
72 -25 73 -3 79 35 9 40 6 57 -35z m-2285 22 c18 -10 18 -11 0 -53 -26 -59
-43 -179 -36 -248 6 -52 5 -57 -14 -62 -31 -8 -35 11 -35 153 0 97 4 136 18
173 19 48 33 55 67 37z m2487 -37 c3 -9 1 -24 -5 -33 -9 -14 -8 -21 3 -30 19
-16 19 -44 0 -60 -13 -11 -13 -15 0 -33 20 -28 19 -32 -7 -56 -20 -19 -20 -22
-5 -38 21 -23 5 -53 -28 -53 -13 0 -33 -9 -44 -21 -15 -16 -26 -19 -51 -14
-29 6 -31 9 -24 38 3 18 10 41 14 52 7 19 7 19 18 -2 9 -16 8 -24 -3 -33 -30
-25 -14 -31 18 -6 66 52 68 55 56 77 -8 16 -7 25 7 40 15 17 16 25 6 51 -9 25
-8 35 5 54 14 22 14 26 0 42 -10 11 -14 27 -11 40 5 18 10 20 26 11 10 -6 22
-17 25 -26z m-2707 -27 c-13 -13 -13 -49 0 -62 6 -6 6 -21 -2 -41 -10 -27 -9
-35 4 -50 10 -11 14 -28 11 -44 -4 -21 3 -32 42 -63 25 -21 48 -36 51 -34 2 3
-2 11 -11 18 -17 14 -20 46 -6 55 13 7 17 -2 26 -52 6 -40 6 -41 -25 -48 -25
-6 -35 -3 -46 13 -8 12 -26 22 -41 24 -36 4 -53 32 -31 54 15 15 14 18 -10 39
l-27 23 22 24 c22 23 22 24 3 36 -23 14 -26 45 -6 62 12 9 13 17 3 37 -10 22
-8 28 13 45 24 19 24 19 32 -3 5 -13 5 -26 -2 -33z m2403 7 c21 -55 30 -136
22 -209 -8 -76 -3 -75 -153 -39 -100 24 -243 82 -256 103 -12 20 299 179 355
181 10 1 23 -14 32 -36z m413 23 c18 -14 18 -16 2 -33 -16 -16 -20 -16 -33 -2
-9 9 -13 23 -9 32 8 21 15 21 40 3z m-2932 -11 c3 -9 0 -24 -6 -35 -11 -18
-14 -18 -30 -3 -17 15 -17 17 -2 35 21 22 30 23 38 3z m499 -15 c102 -44 268
-140 261 -151 -20 -33 -229 -107 -355 -124 l-46 -7 -6 68 c-5 74 6 177 24 218
16 33 34 33 122 -4z m2745 -5 c45 -19 51 -29 25 -43 -13 -8 -21 -4 -35 13 -10
13 -27 27 -38 30 -11 4 -20 11 -20 17 0 5 6 8 13 5 6 -3 31 -13 55 -22z
m-3528 6 c0 -5 -9 -12 -20 -16 -11 -3 -28 -17 -38 -30 -14 -18 -22 -21 -31
-12 -19 19 -13 27 32 47 49 22 57 23 57 11z m3054 -13 c8 -14 7 -22 -7 -35
-17 -17 -19 -17 -37 7 -14 18 -16 28 -8 38 14 17 38 12 52 -10z m-2831 -45
c-13 -19 -13 -28 -3 -52 9 -22 9 -34 0 -51 -9 -17 -8 -26 4 -45 9 -13 13 -31
10 -40 -7 -17 20 -65 36 -65 6 0 3 12 -7 26 -13 21 -14 30 -5 45 8 12 8 19 2
19 -6 0 -16 11 -22 25 -9 21 -8 28 7 45 17 19 17 21 1 39 -21 23 -18 54 5 59
20 4 44 -47 29 -62 -15 -15 -12 -42 5 -56 9 -8 13 -21 9 -36 -6 -25 18 -74 37
-74 6 0 0 14 -12 31 -19 28 -20 32 -6 46 14 14 17 14 32 -1 14 -13 15 -19 5
-32 -10 -11 -10 -20 -1 -41 11 -24 9 -29 -16 -49 -39 -32 -102 -32 -131 -1
-19 21 -20 25 -8 42 12 17 12 21 -5 33 -22 16 -25 45 -5 61 12 10 12 16 -2 41
-16 27 -15 30 2 49 18 20 18 22 2 40 -17 18 -17 20 4 41 21 21 22 21 35 4 11
-15 10 -22 -2 -41z m234 46 c8 -8 8 -18 1 -35 -13 -28 -21 -30 -42 -8 -19 19
-20 26 -4 42 15 15 31 15 45 1z m2827 -12 c9 -15 7 -21 -8 -32 -18 -14 -18
-16 -3 -33 21 -23 22 -46 2 -62 -14 -12 -14 -15 0 -30 21 -24 19 -57 -5 -65
-18 -6 -19 -8 -5 -28 13 -19 13 -23 -7 -44 -29 -31 -92 -31 -131 1 -26 21 -28
25 -16 45 11 16 11 25 2 40 -10 15 -9 22 6 35 16 15 19 15 31 1 10 -12 9 -20
-5 -41 -23 -35 -12 -42 14 -8 16 20 18 30 10 45 -7 15 -6 23 6 35 17 18 19 38
6 62 -11 21 20 69 38 58 17 -11 13 -54 -6 -64 -16 -9 -16 -11 0 -27 21 -21 22
-43 1 -67 -13 -13 -14 -21 -5 -31 8 -11 6 -20 -10 -41 -23 -30 -11 -36 15 -7
10 11 16 30 14 44 -1 13 4 32 12 41 11 14 12 24 2 49 -8 21 -8 35 -2 41 13 13
13 49 0 62 -14 14 -1 46 18 42 8 -2 20 -11 26 -21z m-3170 -45 c-8 -8 -21 -11
-29 -8 -21 8 -19 43 3 55 24 14 47 -26 26 -47z m3276 43 c10 -13 9 -19 -6 -36
-17 -19 -18 -21 -1 -30 22 -13 22 -37 0 -61 -15 -17 -15 -19 0 -36 23 -25 21
-49 -3 -64 -18 -11 -18 -14 -3 -31 16 -16 15 -19 -4 -38 -15 -16 -30 -20 -64
-17 -41 3 -43 4 -19 15 41 18 66 51 54 71 -8 12 -6 24 5 44 13 23 14 31 3 48
-10 16 -10 24 0 40 10 15 10 27 1 51 -19 50 7 80 37 44z m101 -5 c22 -12 25
-33 6 -49 -20 -16 -62 30 -45 47 15 15 15 15 39 2z m-3609 -62 c-11 -14 -18
-15 -29 -7 -17 15 -17 29 4 51 16 17 17 17 28 -4 9 -19 9 -26 -3 -40z m126 50
c7 -9 5 -20 -9 -37 -16 -19 -22 -21 -34 -11 -20 17 -19 37 3 49 23 14 28 13
40 -1z m3606 -10 c7 -12 6 -21 -4 -32 -12 -15 -14 -15 -31 0 -15 13 -16 20 -6
35 13 21 26 20 41 -3z m74 -33 c2 -9 -6 -27 -18 -40 -18 -19 -19 -23 -6 -28
20 -8 21 -41 1 -57 -19 -16 -53 6 -35 24 14 14 13 59 -2 74 -9 9 -9 15 0 24 7
7 12 21 12 31 0 18 2 18 23 5 12 -9 24 -23 25 -33z m-3863 25 c-3 -5 -1 -19 5
-31 9 -15 9 -24 1 -32 -15 -15 -14 -50 1 -65 19 -19 -15 -50 -36 -32 -21 17
-20 47 1 59 17 9 16 11 -5 33 -28 30 -28 43 0 62 25 18 42 21 33 6z m3629 -22
c8 -13 5 -23 -14 -43 -13 -14 -18 -25 -12 -25 21 0 32 -36 18 -56 -14 -18 -15
-18 -34 5 -18 23 -18 27 -4 52 15 24 14 29 -1 52 -9 13 -13 28 -9 31 11 12 44
2 56 -16z m329 0 c23 -12 22 -45 -3 -58 -17 -9 -22 -7 -32 15 -6 14 -15 25
-19 25 -5 0 -13 9 -20 21 -10 20 -9 21 23 14 18 -4 41 -11 51 -17z m-4023 4
c0 -5 -10 -17 -21 -28 -12 -10 -24 -27 -28 -37 -7 -18 -8 -18 -31 1 -30 24
-21 48 22 61 43 12 58 13 58 3z m302 2 c9 -8 -25 -64 -36 -61 -21 7 -30 35
-17 51 13 16 42 21 53 10z m3496 -6 c15 -15 16 -45 2 -53 -14 -8 -49 35 -43
52 6 16 25 17 41 1z m-3613 -8 c9 -15 -25 -60 -41 -53 -20 7 -18 40 4 52 22
13 29 13 37 1z m3093 1 c16 -10 12 -53 -5 -58 -15 -5 -35 31 -27 51 7 18 13
19 32 7z m-3412 -32 c-25 -29 -26 -33 -11 -55 19 -30 10 -76 -14 -72 -19 4
-27 44 -12 61 7 9 4 16 -10 25 -26 17 -25 50 4 56 12 3 31 7 42 9 11 3 22 5
23 6 2 0 -8 -13 -22 -30z m493 -13 c7 -5 5 -15 -5 -32 -15 -22 -15 -26 0 -49
12 -19 14 -30 7 -44 -8 -14 -6 -25 10 -46 12 -14 27 -24 34 -21 8 3 19 -2 26
-10 11 -13 6 -15 -41 -12 -61 3 -84 24 -63 57 10 16 8 22 -8 37 -23 21 -24 32
-2 56 15 17 15 19 0 36 -21 23 -21 31 0 54 17 19 17 19 24 0 4 -11 12 -23 18
-26z m335 28 c8 -20 -12 -56 -27 -51 -17 5 -21 35 -7 52 16 19 26 19 34 -1z
m2710 -7 c8 -12 8 -22 0 -34 -16 -25 -34 -27 -34 -4 0 11 -5 23 -10 26 -8 5
-7 11 1 21 14 17 29 14 43 -9z m714 17 c26 -7 29 -30 6 -55 -13 -14 -13 -21
-3 -37 10 -17 10 -23 0 -36 -34 -40 -59 6 -31 56 14 25 13 28 -9 52 -23 24
-23 26 -5 26 10 0 29 -3 42 -6z m-3541 -15 c9 -9 9 -18 0 -38 -15 -36 -15 -35
-32 -21 -18 15 -20 41 -3 58 15 15 21 15 35 1z m3171 -1 c17 -17 15 -38 -5
-60 -15 -17 -15 -19 0 -36 23 -25 21 -38 -5 -56 -21 -15 -21 -16 -4 -35 17
-19 17 -20 -27 -26 -25 -4 -53 -5 -63 -3 -16 3 -14 6 11 19 24 11 30 21 31 47
0 18 6 38 12 44 15 15 16 54 2 63 -6 4 -4 16 6 31 18 27 25 29 42 12z m232
-31 c0 -6 -7 -19 -16 -29 -16 -17 -17 -17 -30 8 -11 20 -11 29 -2 44 11 18 14
18 30 3 10 -9 18 -21 18 -26z m249 18 c8 -8 10 -18 5 -27 -5 -7 -7 -23 -6 -35
4 -24 -23 -43 -61 -43 -20 0 -26 6 -30 33 -5 35 21 75 42 63 16 -10 14 -41 -4
-56 -9 -7 -13 -15 -10 -18 8 -8 45 29 45 45 0 8 -12 25 -27 39 l-28 26 30 -7
c17 -4 36 -13 44 -20z m-4473 -10 c-14 -13 -26 -28 -26 -32 0 -18 32 -53 48
-53 13 0 12 5 -8 20 -20 15 -23 23 -14 36 6 10 15 19 20 21 16 5 31 -31 26
-65 -3 -25 -9 -32 -26 -32 -30 0 -68 28 -64 48 1 10 -1 23 -6 30 -14 23 11 42
68 51 5 0 -3 -10 -18 -24z m254 5 c11 -21 -2 -60 -20 -60 -21 0 -29 37 -14 58
19 27 21 27 34 2z m228 0 c9 -15 9 -25 0 -44 -9 -20 -8 -30 5 -49 9 -14 13
-33 11 -45 -6 -19 -1 -26 41 -58 19 -14 16 -15 -34 -10 -62 6 -68 10 -52 30
10 12 8 19 -8 35 -26 26 -26 33 -1 56 l20 18 -20 14 c-22 16 -26 43 -8 61 17
17 31 15 46 -8z m3632 -12 c0 -6 -7 -19 -16 -29 -14 -16 -14 -20 1 -43 16 -24
16 -26 -12 -61 l-28 -35 -7 32 c-4 18 -2 37 3 43 12 12 12 62 -1 70 -6 4 -3
15 7 30 14 17 22 21 36 14 9 -6 17 -15 17 -21z m-3743 -49 c-8 -21 -8 -34 2
-51 8 -15 9 -32 3 -47 l-8 -23 -28 32 c-25 30 -26 34 -11 56 14 22 14 26 0 48
-14 22 -14 25 1 41 16 16 18 16 34 -5 14 -18 15 -28 7 -51z m3103 56 c10 -12
10 -21 2 -40 -17 -37 -32 -30 -32 15 0 42 9 50 30 25z m850 -10 c0 -7 -7 -21
-17 -30 -15 -16 -17 -16 -26 0 -6 12 -4 22 8 35 19 21 35 18 35 -5z m263 18
l38 -6 -26 -17 -26 -17 25 -20 c14 -11 22 -23 19 -27 -3 -3 -34 -6 -68 -6
l-62 0 7 42 c5 24 6 46 4 50 -6 10 37 10 89 1z m-4658 -13 c-3 -5 -3 -15 1
-22 4 -6 8 -24 9 -40 3 -27 1 -28 -45 -28 -27 0 -56 3 -65 6 -14 6 -14 9 5 29
l22 23 -23 13 c-23 12 -23 12 -4 20 30 11 107 11 100 -1z m213 -8 c15 -15 17
-22 7 -35 -11 -15 -14 -15 -30 3 -9 10 -15 26 -12 35 8 19 13 19 35 -3z m842
-24 c0 -40 0 -41 -20 -23 -23 21 -25 36 -8 53 21 21 28 13 28 -30z m2840 -6
c0 -10 -5 -23 -12 -30 -8 -8 -15 -5 -25 15 -19 36 -10 58 17 43 11 -6 20 -19
20 -28z m-3285 -26 c-14 -21 -20 -24 -31 -15 -18 15 -18 28 3 51 14 16 19 17
31 4 12 -12 12 -17 -3 -40z m110 14 c-8 -9 -15 -22 -15 -30 0 -10 -3 -10 -15
0 -20 17 -19 47 2 59 27 15 48 -7 28 -29z m3401 -2 c3 -12 0 -26 -9 -35 -13
-13 -16 -11 -30 15 -10 20 -11 34 -5 40 14 14 36 4 44 -20z m212 19 c9 -10 7
-19 -4 -36 -21 -30 -9 -40 14 -11 15 19 20 20 30 7 16 -19 2 -31 -56 -45 -36
-8 -41 -8 -31 4 6 8 8 25 5 40 -4 15 -2 32 5 40 14 17 24 18 37 1z m-4055 -15
c13 -14 14 -21 5 -30 -8 -8 -9 -18 -1 -35 11 -24 11 -24 -30 -14 -51 12 -62
21 -53 43 6 15 9 15 31 -6 14 -13 27 -21 30 -18 3 3 -1 11 -10 18 -22 18 -19
60 5 60 4 0 14 -8 23 -18z m214 -31 c-6 -16 -16 -27 -23 -24 -20 8 -23 29 -7
52 11 17 18 19 28 11 10 -8 10 -17 2 -39z m3088 -1 c-16 -18 -20 -19 -27 -6
-5 9 -4 23 4 35 11 18 14 19 27 6 13 -13 12 -17 -4 -35z m-2565 20 c6 -12 7
-27 2 -36 -7 -13 -11 -12 -26 5 -15 17 -16 23 -6 36 16 19 17 19 30 -5z m3258
-24 c2 -9 -2 -24 -8 -32 -19 -22 -42 12 -26 38 13 21 30 18 34 -6z m-3939 0
c10 -11 10 -20 0 -37 -11 -22 -12 -22 -25 -4 -28 39 -4 77 25 41z m3650 -57
c-5 -11 -14 -19 -18 -19 -16 0 -21 31 -8 51 11 18 13 18 24 3 9 -12 9 -22 2
-35z m-3588 -5 c19 -20 19 -21 -12 -16 -35 5 -47 25 -28 48 11 13 14 13 17 3
3 -8 13 -23 23 -35z m223 -9 c-6 -15 -8 -15 -25 1 -14 13 -16 21 -8 36 11 20
11 20 25 0 8 -11 11 -28 8 -37z m3263 40 c3 -9 -3 -25 -13 -36 l-19 -21 -6 24
c-9 37 24 67 38 33z m338 -10 c0 -12 -10 -21 -26 -26 l-27 -7 17 29 c17 31 36
33 36 4z m-3498 7 c8 -5 10 -17 5 -37 l-8 -30 -18 27 c-23 36 -10 60 21 40z
m3386 -38 c-6 -17 -25 -18 -41 -2 -9 9 -8 16 5 31 16 17 18 17 29 2 7 -9 10
-23 7 -31z m-3607 -12 c-17 -17 -36 -8 -36 17 0 27 12 33 32 14 16 -14 17 -19
4 -31z"/>
<path d="M6708 3105 c-3 -48 5 -58 22 -24 13 24 10 61 -6 66 -8 3 -13 -13 -16
-42z"/>
<path d="M6624 3096 c-8 -21 3 -36 27 -36 15 0 20 6 17 22 -4 27 -35 37 -44
14z"/>
<path d="M4884 3125 c-8 -20 9 -68 26 -73 9 -3 11 1 7 12 -4 10 -7 31 -7 47 0
30 -17 40 -26 14z"/>
<path d="M4954 3086 c-8 -21 3 -36 27 -36 15 0 20 6 17 22 -4 27 -35 37 -44
14z"/>
<path d="M6710 2403 c1 -45 2 -47 16 -28 17 23 15 66 -3 73 -9 2 -13 -10 -13
-45z"/>
<path d="M6623 2394 c-3 -8 -1 -20 5 -26 16 -16 42 -2 42 22 0 24 -38 28 -47
4z"/>
<path d="M4892 2438 c-17 -17 -15 -42 7 -69 l19 -24 -5 50 c-7 59 -6 58 -21
43z"/>
<path d="M4960 2395 c-16 -19 -5 -47 17 -43 22 4 29 43 9 51 -8 3 -20 -1 -26
-8z"/>
</g>
</svg>
